<svg width="33" height="34" viewBox="0 0 33 34" fill="none" xmlns="http://www.w3.org/2000/svg">
<path d="M17.857 11.4783C17.9266 11.5461 18.2242 11.8021 18.469 12.0406C20.0086 13.4388 22.5286 17.0861 23.2978 18.9951C23.4214 19.285 23.683 20.018 23.6998 20.4096C23.6998 20.7848 23.6134 21.1426 23.4382 21.4839C23.1934 21.9095 22.8082 22.2508 22.3534 22.4379C22.0378 22.5583 21.0934 22.7453 21.0766 22.7453C20.0434 22.9323 18.3646 23.0352 16.5094 23.0352C14.7418 23.0352 13.1314 22.9323 12.0826 22.7792C12.0658 22.7617 10.8922 22.5747 10.4902 22.3701C9.75583 21.9948 9.2998 21.2618 9.2998 20.4774V20.4096C9.3178 19.8988 9.77383 18.8244 9.79057 18.8244C10.561 17.0182 12.9574 13.4551 14.5498 12.0231C14.5498 12.0231 14.959 11.6198 15.2146 11.4444C15.5818 11.1708 16.0366 11.0352 16.4914 11.0352C16.999 11.0352 17.4718 11.1884 17.857 11.4783Z" fill="#CCCCCC"/>
</svg>
