<svg width="24" height="25" viewBox="0 0 24 25" fill="none" xmlns="http://www.w3.org/2000/svg">
<path d="M16.7065 8.51896C16.8895 8.3359 16.8895 8.0391 16.7065 7.85604C16.5234 7.67299 16.2266 7.67299 16.0436 7.85604L12 11.8996L7.95646 7.85605C7.7734 7.67299 7.4766 7.67299 7.29354 7.85605C7.11049 8.0391 7.11049 8.3359 7.29354 8.51896L11.3371 12.5625L7.29356 16.606C7.1105 16.7891 7.1105 17.0859 7.29356 17.269C7.47662 17.452 7.77341 17.452 7.95647 17.269L12 13.2254L16.0435 17.269C16.2266 17.452 16.5234 17.452 16.7065 17.269C16.8895 17.0859 16.8895 16.7891 16.7065 16.606L12.6629 12.5625L16.7065 8.51896Z" fill="white"/>
</svg>
