<svg width="35" height="33" viewBox="0 0 35 33" fill="none" xmlns="http://www.w3.org/2000/svg">
<path fill-rule="evenodd" clip-rule="evenodd" d="M15.5061 8.23047C14.7283 8.23047 14.0978 8.86096 14.0978 9.63872V11.7511C14.0978 12.5288 14.7283 13.1594 15.5061 13.1594H16.9727V15.9347H14.4162C13.3467 15.9347 12.4798 16.8016 12.4798 17.8711V19.3254H10.8711C10.0934 19.3254 9.46289 19.9558 9.46289 20.7336V22.846C9.46289 23.6237 10.0934 24.2542 10.8711 24.2542H14.8609C15.6386 24.2542 16.2691 23.6237 16.2691 22.846V20.7336C16.2691 19.9558 15.6386 19.3254 14.8609 19.3254H13.536V17.8711C13.536 17.385 13.9301 16.9909 14.4162 16.9909H20.5857C21.0718 16.9909 21.4658 17.385 21.4658 17.8711V19.3254H20.1408C19.363 19.3254 18.7325 19.9558 18.7325 20.7336V22.846C18.7325 23.6237 19.363 24.2542 20.1408 24.2542H24.1305C24.9083 24.2542 25.5387 23.6237 25.5387 22.846V20.7336C25.5387 19.9558 24.9083 19.3254 24.1305 19.3254H22.522V17.8711C22.522 16.8016 21.6551 15.9347 20.5857 15.9347H18.029V13.1594H19.4958C20.2736 13.1594 20.904 12.5288 20.904 11.7511V9.63872C20.904 8.86096 20.2736 8.23047 19.4958 8.23047H15.5061Z" fill="#C5C5C5"/>
</svg>
