<svg width="33" height="33" viewBox="0 0 33 33" fill="none" xmlns="http://www.w3.org/2000/svg">
<path fill-rule="evenodd" clip-rule="evenodd" d="M24.5251 16.1027C20.9477 15.1804 18.1523 12.385 17.2301 8.80771C17.1243 8.39743 16.5417 8.39743 16.4359 8.80771C15.5136 12.385 12.7183 15.1804 9.14094 16.1027C8.73034 16.2086 8.73039 16.7916 9.14094 16.8977C12.7183 17.82 15.5136 20.6153 16.4359 24.1919C16.5417 24.6022 17.1244 24.6022 17.2301 24.1919C18.1523 20.6153 20.9477 17.82 24.5251 16.8977C24.9356 16.7916 24.9357 16.2086 24.5251 16.1027Z" fill="#CFCFCF"/>
<path fill-rule="evenodd" clip-rule="evenodd" d="M22.3719 13.0121C22.3719 12.0587 23.4172 10.9617 24.4223 10.9617C23.4549 10.9617 22.3719 9.85322 22.3719 8.91211C22.3719 9.85322 21.2987 10.9617 20.3223 10.9617C21.2618 10.9617 22.3719 12.053 22.3719 13.0121Z" fill="#CFCFCF"/>
</svg>
