<svg width="34" height="33" viewBox="0 0 34 33" fill="none" xmlns="http://www.w3.org/2000/svg">
<path fill-rule="evenodd" clip-rule="evenodd" d="M24.654 16.1027C21.0767 15.1804 18.2813 12.385 17.359 8.80771C17.2532 8.39743 16.6706 8.39743 16.5648 8.80771C15.6426 12.385 12.8471 15.1804 9.26984 16.1027C8.85924 16.2086 8.8593 16.7916 9.26984 16.8977C12.8471 17.82 15.6426 20.6153 16.5648 24.1919C16.6705 24.6022 17.2532 24.6022 17.359 24.1919C18.2813 20.6153 21.0767 17.82 24.654 16.8977C25.0645 16.7916 25.0645 16.2086 24.654 16.1027Z" fill="#666666"/>
<path fill-rule="evenodd" clip-rule="evenodd" d="M22.5008 13.0121C22.5008 12.0587 23.5461 10.9617 24.5511 10.9617C23.5838 10.9617 22.5008 9.85322 22.5008 8.91211C22.5008 9.85322 21.4276 10.9617 20.4512 10.9617C21.3906 10.9617 22.5008 12.053 22.5008 13.0121Z" fill="#666666"/>
</svg>
