<svg width="34" height="33" viewBox="0 0 34 33" fill="none" xmlns="http://www.w3.org/2000/svg">
<path d="M23.1886 18.0108C23.1131 18.0884 22.8279 18.4198 22.5623 18.6924C21.0052 20.4071 16.9431 23.2137 14.8169 24.0703C14.494 24.2079 13.6778 24.4994 13.2416 24.5181C12.8236 24.5181 12.4253 24.4219 12.0451 24.2267C11.5712 23.954 11.191 23.5251 10.9827 23.0186C10.8486 22.667 10.6403 21.6152 10.6403 21.5966C10.432 20.4458 10.3174 18.5761 10.3174 16.51C10.3174 14.5413 10.4319 12.7479 10.6025 11.5798C10.622 11.561 10.8303 10.254 11.0582 9.80624C11.4761 8.98832 12.2925 8.48047 13.1661 8.48047H13.2416C13.8106 8.50051 15.0071 9.00837 15.0071 9.02708C17.0186 9.88509 20.987 12.554 22.5819 14.3275C22.5819 14.3275 23.0311 14.7832 23.2264 15.0679C23.531 15.4769 23.682 15.9834 23.682 16.4899C23.682 17.0553 23.5115 17.5819 23.1886 18.0108Z" fill="#9E9E9E"/>
</svg>
