<svg width="33" height="33" viewBox="0 0 33 33" fill="none" xmlns="http://www.w3.org/2000/svg">
<path fill-rule="evenodd" clip-rule="evenodd" d="M21.6809 16.2095C21.6809 16.5068 21.8334 16.772 22.0878 16.9206C23.1918 17.5625 23.5706 18.9877 22.9343 20.0987C22.6239 20.6386 22.1235 21.0244 21.5246 21.1855C20.9294 21.3427 20.307 21.2618 19.7725 20.9513C19.5197 20.8036 19.2186 20.8036 18.9657 20.9497C18.709 21.0968 18.5558 21.3637 18.5558 21.6616C18.5558 22.9446 17.5179 23.9894 16.242 23.9894C14.9653 23.9894 13.9275 22.9446 13.9275 21.6616C13.9275 21.3628 13.7742 21.0968 13.5176 20.949C13.2647 20.8036 12.9636 20.8036 12.7123 20.9513C12.1771 21.2618 11.5539 21.3442 10.9572 21.1847C10.3589 21.0237 9.85945 20.6379 9.54981 20.0987C8.91342 18.9877 9.29308 17.5617 10.3963 16.9199C10.6507 16.7728 10.8024 16.5068 10.8024 16.2095C10.8024 15.9123 10.6507 15.6463 10.3963 15.4985C9.29308 14.8582 8.91342 13.4329 9.54981 12.3212C9.85945 11.7812 10.3589 11.3954 10.958 11.2343C11.5554 11.074 12.1771 11.1581 12.7123 11.4685C12.9643 11.6163 13.2655 11.6148 13.5176 11.4701C13.7742 11.3222 13.9275 11.0561 13.9275 10.7574C13.9275 9.47452 14.9653 8.42969 16.242 8.42969C17.5179 8.42969 18.5558 9.47452 18.5558 10.7574C18.5558 11.0554 18.709 11.3222 18.9657 11.4692C19.2193 11.6163 19.5205 11.6163 19.7725 11.4685C20.3063 11.1581 20.9285 11.0756 21.5246 11.2335C22.1235 11.3946 22.6239 11.7805 22.9343 12.3204C23.5706 13.4321 23.1918 14.8574 22.0885 15.4992C21.8334 15.647 21.6809 15.9123 21.6809 16.2095ZM16.2419 18.5434C14.955 18.5434 13.9079 17.4962 13.9079 16.2094C13.9079 14.9226 14.955 13.8755 16.2419 13.8755C17.5287 13.8755 18.5758 14.9226 18.5758 16.2094C18.5758 17.4962 17.5287 18.5434 16.2419 18.5434Z" fill="#7D7D7D"/>
</svg>
