<svg width="32" height="33" viewBox="0 0 32 33" fill="none" xmlns="http://www.w3.org/2000/svg">
<path fill-rule="evenodd" clip-rule="evenodd" d="M10.2265 3.22852H21.7865C26.3065 3.22852 29.3332 6.40185 29.3332 11.1218V22.0165C29.3332 26.7232 26.3065 29.8952 21.7865 29.8952H10.2265C5.7065 29.8952 2.6665 26.7232 2.6665 22.0165V11.1218C2.6665 6.40185 5.7065 3.22852 10.2265 3.22852ZM20.0132 20.5618C20.4665 20.1098 20.4665 19.3765 20.0132 18.9232L17.6398 16.5498L20.0132 14.1752C20.4665 13.7232 20.4665 12.9765 20.0132 12.5232C19.5598 12.0685 18.8265 12.0685 18.3598 12.5232L15.9998 14.8952L13.6265 12.5232C13.1598 12.0685 12.4265 12.0685 11.9732 12.5232C11.5198 12.9765 11.5198 13.7232 11.9732 14.1752L14.3465 16.5498L11.9732 18.9098C11.5198 19.3765 11.5198 20.1098 11.9732 20.5618C12.1998 20.7885 12.5065 20.9098 12.7998 20.9098C13.1065 20.9098 13.3998 20.7885 13.6265 20.5618L15.9998 18.2032L18.3732 20.5618C18.5998 20.8032 18.8932 20.9098 19.1865 20.9098C19.4932 20.9098 19.7865 20.7885 20.0132 20.5618Z" fill="#DA5345"/>
</svg>
