<svg width="32" height="33" viewBox="0 0 32 33" fill="none" xmlns="http://www.w3.org/2000/svg">
<path fill-rule="evenodd" clip-rule="evenodd" d="M10.2267 3.22852H21.7867C26.3067 3.22852 29.3334 6.40185 29.3334 11.1218V22.0165C29.3334 26.7218 26.3067 29.8952 21.7867 29.8952H10.2267C5.70675 29.8952 2.66675 26.7218 2.66675 22.0165V11.1218C2.66675 6.40185 5.70675 3.22852 10.2267 3.22852ZM15.2401 20.5485L21.5734 14.2152C22.0267 13.7618 22.0267 13.0285 21.5734 12.5618C21.1201 12.1085 20.3734 12.1085 19.9201 12.5618L14.4134 18.0685L12.0801 15.7352C11.6267 15.2818 10.8801 15.2818 10.4267 15.7352C9.97341 16.1885 9.97341 16.9218 10.4267 17.3885L13.6001 20.5485C13.8267 20.7752 14.1201 20.8818 14.4134 20.8818C14.7201 20.8818 15.0134 20.7752 15.2401 20.5485Z" fill="#46BE66"/>
</svg>
