<svg width="34" height="34" viewBox="0 0 34 34" fill="none" xmlns="http://www.w3.org/2000/svg">
<mask id="mask0_1698_1081" style="mask-type:luminance" maskUnits="userSpaceOnUse" x="9" y="8" width="16" height="17">
<path d="M24.5109 8.49219H9.00098V24.9082H24.5109V8.49219Z" fill="white"/>
</mask>
<g mask="url(#mask0_1698_1081)">
<path d="M22.6621 19.0317C21.3775 22.8358 17.7898 25.3411 13.9963 23.1729C13.723 23.0168 13.3718 23.1552 13.283 23.4604C13.1588 23.8827 13.0879 24.2233 13.0488 24.4682C13.0063 24.7307 12.7756 24.9153 12.5095 24.9082C12.1865 24.9011 11.9417 24.6101 11.9948 24.2943C12.0587 23.8933 12.1901 23.3006 12.4456 22.5519C12.513 22.3603 12.4527 22.1403 12.2929 22.0161C9.53922 19.9295 9.67762 15.4191 12.6158 12.4808C15.7387 9.3545 21.4591 8.49219 21.4591 8.49219C21.4591 8.49219 24.3583 13.989 22.6621 19.0317Z" fill="#7D7D7D"/>
</g>
</svg>
