<svg width="35" height="33" viewBox="0 0 35 33" fill="none" xmlns="http://www.w3.org/2000/svg">
<path fill-rule="evenodd" clip-rule="evenodd" d="M15.5353 8.48828C14.7576 8.48828 14.1271 9.11877 14.1271 9.89652V12.0089C14.1271 12.7866 14.7576 13.4172 15.5353 13.4172H17.002V16.1925H14.4455C13.376 16.1925 12.5091 17.0595 12.5091 18.1288V19.5832H10.9004C10.1227 19.5832 9.49219 20.2136 9.49219 20.9914V23.1038C9.49219 23.8816 10.1227 24.512 10.9004 24.512H14.8902C15.668 24.512 16.2984 23.8816 16.2984 23.1038V20.9914C16.2984 20.2136 15.668 19.5832 14.8902 19.5832H13.5653V18.1288C13.5653 17.6428 13.9594 17.2486 14.4455 17.2486H20.6149C21.101 17.2486 21.4951 17.6428 21.4951 18.1288V19.5832H20.17C19.3923 19.5832 18.7618 20.2136 18.7618 20.9914V23.1038C18.7618 23.8816 19.3923 24.512 20.17 24.512H24.1598C24.9376 24.512 25.5681 23.8816 25.5681 23.1038V20.9914C25.5681 20.2136 24.9376 19.5832 24.1598 19.5832H22.5513V18.1288C22.5513 17.0595 21.6844 16.1925 20.6149 16.1925H18.0582V13.4172H19.5251C20.3029 13.4172 20.9333 12.7866 20.9333 12.0089V9.89652C20.9333 9.11877 20.3029 8.48828 19.5251 8.48828H15.5353Z" fill="#7D7D7D"/>
</svg>
