<svg width="33" height="35" viewBox="0 0 33 35" fill="none" xmlns="http://www.w3.org/2000/svg">
<path fill-rule="evenodd" clip-rule="evenodd" d="M11.7758 9.75781H21.2235C21.9971 9.75781 22.6243 10.385 22.6243 11.1586C22.6243 11.9322 21.9971 12.5594 21.2235 12.5594H11.7758C11.0022 12.5594 10.375 11.9322 10.375 11.1586C10.375 10.385 11.0022 9.75781 11.7758 9.75781Z" fill="#BFBFBF"/>
<path fill-rule="evenodd" clip-rule="evenodd" d="M11.7758 16.0996H21.2235C21.9971 16.0996 22.6243 16.7268 22.6243 17.5004C22.6243 18.274 21.9971 18.9012 21.2235 18.9012H11.7758C11.0022 18.9012 10.375 18.274 10.375 17.5004C10.375 16.7268 11.0022 16.0996 11.7758 16.0996Z" fill="#BFBFBF"/>
<path fill-rule="evenodd" clip-rule="evenodd" d="M11.7759 22.4395H16.5951C17.3688 22.4395 17.9961 23.0667 17.9961 23.8404C17.9961 24.6141 17.3688 25.2413 16.5951 25.2413H11.7759C11.0022 25.2413 10.375 24.6141 10.375 23.8404C10.375 23.0667 11.0022 22.4395 11.7759 22.4395Z" fill="#BFBFBF"/>
</svg>
