<svg width="32" height="33" viewBox="0 0 32 33" fill="none" xmlns="http://www.w3.org/2000/svg">
<path fill-rule="evenodd" clip-rule="evenodd" d="M21.7735 29.8965L10.2135 29.8965C5.69349 29.8965 2.66683 26.7232 2.66683 22.0032L2.66683 11.1085C2.66683 6.40182 5.69349 3.22982 10.2135 3.22982L21.7735 3.22982C26.2935 3.22982 29.3335 6.40182 29.3335 11.1085L29.3335 22.0032C29.3335 26.7232 26.2935 29.8965 21.7735 29.8965ZM16.0135 20.4818C16.6402 20.4818 17.1602 21.0032 17.1602 21.6418C17.1602 22.2952 16.6402 22.8152 15.9868 22.8152C15.3468 22.8152 14.8268 22.2952 14.8268 21.6418C14.8268 21.0032 15.3468 20.4818 16.0135 20.4818ZM14.8402 11.5218C14.8402 10.8818 15.3602 10.3618 16.0135 10.3618C16.6535 10.3618 17.1735 10.8818 17.1735 11.5218V17.4152C17.1735 18.0565 16.6535 18.5885 16.0135 18.5885C15.3602 18.5885 14.8402 18.0565 14.8402 17.4152V11.5218Z" fill="#DAAC44"/>
</svg>
